<?xml version="1.0" encoding="UTF-8"?>
<!DOCTYPE svg PUBLIC "-//W3C//DTD SVG 1.1//EN" "http://www.w3.org/Graphics/SVG/1.1/DTD/svg11.dtd">
<!-- Creator: CorelDRAW 2021 (64-Bit) -->
<svg xmlns="http://www.w3.org/2000/svg" xml:space="preserve" width="76px" height="89px" version="1.1" style="shape-rendering:geometricPrecision; text-rendering:geometricPrecision; image-rendering:optimizeQuality; fill-rule:evenodd; clip-rule:evenodd"
viewBox="0 0 8.15 9.57"
 xmlns:xlink="http://www.w3.org/1999/xlink"
 xmlns:xodm="http://www.corel.com/coreldraw/odm/2003">
 <defs>
  <style type="text/css">
   <![CDATA[
    .fil0 {fill:#D6EFFF;fill-opacity:0.701961}
   ]]>
  </style>
 </defs>
 <g id="Capa_x0020_1">
  <metadata id="CorelCorpID_0Corel-Layer"/>
  <path class="fil0" d="M2.73 0.86c0,0.03 -0.03,0.19 -0.04,0.21l-0.01 0.07c-0.02,0.26 0,0.51 0,0.75 0,0.12 0.01,0.26 0.02,0.37 0.01,0.12 0,0.26 0.01,0.38l0 0c0.01,0.02 0,0.01 0.01,0.04 0,0.1 -0.01,0.18 0.01,0.32l0 0.17 -0.03 0.07c0,0.04 -0.09,0.14 -0.11,0.18 -0.03,0.03 -0.04,0.05 -0.06,0.08 -0.02,0.03 -0.04,0.07 -0.06,0.08 -0.04,0.11 -0.4,0.58 -0.49,0.69 -0.15,0.2 -0.21,0.34 -0.3,0.57 -0.03,0.07 -0.06,0.18 -0.09,0.21 0.01,0.05 -0.2,0.51 -0.25,0.6 -0.05,0.1 -0.12,0.22 -0.17,0.32 -0.07,0.16 -0.1,0.39 -0.06,0.59 0.03,0.1 -0.03,0.11 -0.08,0.23 -0.11,0.27 -0.13,0.5 -0.49,0.51 -0.18,0.01 -0.43,-0.05 -0.49,0.19 -0.05,0.23 0.05,0.37 0.07,0.57 0.03,0.16 -0.07,0.48 -0.12,0.53l0 0.19c0.03,0.03 0.02,0.04 0.07,0.08 0.09,0.08 0.44,0.16 0.58,0.19 0.08,0.01 0.18,0.03 0.27,0.05 0.58,0.13 0.62,0.17 1.13,0.37 0.5,0.19 0.56,0.1 0.87,-0.15 0.04,-0.03 0.12,-0.09 0.18,-0.12 0.3,-0.15 0.74,-0.13 1.09,-0.13l0.53 0c0.03,0 0.05,-0.01 0.07,0.01 0.1,-0.01 0.37,-0.01 0.45,0.03 0.05,0.03 0.07,0.08 0.1,0.13l0.09 0.14c0.01,0 0.01,0 0.02,0.02 0.02,0.01 0.04,0.03 0.07,0.05 0.02,0.01 0.06,0.03 0.08,0.04 0.07,0.02 0.08,0.03 0.23,0.05 0.21,0.03 0.48,0.02 0.65,-0.12 0.02,-0.02 -0.01,-0.01 0.02,-0.02 0.02,-0.01 0.01,-0.01 0.03,-0.01 0.01,-0.03 0.05,-0.07 0.08,-0.1l0.07 -0.06c0.02,-0.02 0,-0.01 0.03,-0.02 0.01,-0.03 0,-0.01 0.01,-0.03l0.17 -0.14c0,0 0,0 0.01,-0.01 0,0 0.01,0 0.01,0 0,0 0,0 0,0 0.04,-0.07 0.4,-0.26 0.48,-0.3 0.25,-0.1 0.29,-0.13 0.5,-0.27 0.14,-0.09 0.19,-0.12 0.26,-0.24l0 -0.13c-0.02,-0.02 -0.04,-0.07 -0.07,-0.1 -0.02,-0.03 -0.06,-0.06 -0.09,-0.08l-0.15 -0.1c-0.01,-0.01 -0.02,-0.01 -0.03,-0.02 -0.02,-0.01 -0.01,-0.01 -0.01,-0.02 -0.03,-0.01 -0.02,0.01 -0.03,-0.02 -0.09,-0.02 -0.31,-0.26 -0.35,-0.43 -0.05,-0.21 0.03,-0.37 -0.2,-0.4 -0.05,-0.01 -0.12,-0.03 -0.16,-0.03 0.01,-0.02 0,-0.01 0.02,-0.03 0,0 0.01,-0.01 0.02,-0.02l0.1 -0.13c0.06,-0.07 0.08,-0.13 0.1,-0.22 0.04,-0.15 0.01,-0.4 -0.02,-0.56l-0.02 -0.16 -0.01 -0.02c0,-0.02 0,-0.01 0,-0.03l-0.07 -0.33c-0.02,-0.02 -0.04,-0.12 -0.04,-0.15 -0.02,-0.02 -0.01,0 -0.02,-0.03l-0.06 -0.17c-0.02,-0.06 -0.05,-0.12 -0.08,-0.18 -0.02,-0.05 -0.08,-0.13 -0.07,-0.17 -0.02,-0.01 -0.01,0 -0.02,-0.02 -0.01,-0.02 -0.01,-0.02 -0.01,-0.04 -0.03,-0.01 -0.12,-0.18 -0.15,-0.22 -0.05,-0.07 -0.09,-0.14 -0.15,-0.21 -0.19,-0.26 -0.36,-0.46 -0.52,-0.75l-0.32 -0.58c-0.07,-0.17 -0.11,-0.32 -0.14,-0.51 -0.01,-0.1 -0.02,-0.19 -0.03,-0.29 -0.03,-0.2 -0.02,-0.41 -0.04,-0.6 -0.03,-0.21 -0.04,-0.48 -0.13,-0.68l-0.05 -0.1c-0.07,-0.13 -0.18,-0.25 -0.27,-0.33 -0.06,-0.05 -0.11,-0.08 -0.18,-0.13 -0.04,-0.02 -0.17,-0.08 -0.18,-0.09l-0.2 -0.07c-0.07,-0.04 -0.34,-0.06 -0.44,-0.06 -0.06,0 -0.11,-0.02 -0.16,-0.01 -0.1,0.02 -0.22,0.01 -0.32,0.03 -0.15,0.03 -0.37,0.11 -0.48,0.21 -0.13,0.11 -0.24,0.22 -0.31,0.38l-0.08 0.24zm2.62 3.43c-0.09,-0.21 -0.11,-0.59 -0.38,-0.91 -0.1,-0.12 -0.15,-0.23 -0.16,-0.4 -0.05,0 -0.23,0.14 -0.3,0.18 -0.19,0.09 -0.1,0.03 -0.31,0.16 -0.25,0.15 -0.26,0.2 -0.4,0.31 -0.22,0.16 -0.42,0.06 -0.57,-0.13 -0.07,-0.09 -0.06,-0.07 -0.13,-0.18 -0.03,-0.05 -0.09,-0.14 -0.14,-0.14 -0.03,0.03 -0.05,0.17 -0.1,0.29 -0.04,0.09 -0.08,0.17 -0.13,0.26 -0.06,0.11 -0.13,0.28 -0.16,0.42 -0.07,0.49 -0.25,0.66 -0.36,1.07 -0.03,0.04 -0.11,0.3 -0.12,0.37l-0.02 0.16 -0.02 0.2c-0.02,0.05 -0.01,0.13 -0.01,0.18 0,0.13 0,0.29 0,0.41 0,0.02 0.01,0.23 0.05,0.34 0.07,0.17 0.18,0.27 0.19,0.29 0.27,0.36 0.49,0.87 0.84,1.1l0.08 0.05c0.05,0.03 0.11,0.06 0.16,0.09 0.05,0.04 0.1,0.07 0.17,0.09 0.32,0.09 0.99,0.01 1.27,-0.19 0.07,-0.05 0.11,-0.09 0.16,-0.16 0.11,-0.12 0.13,-0.13 0.23,-0.23 0.05,-0.05 0.06,-0.07 0.12,-0.12 0.04,-0.03 0.1,-0.11 0.1,-0.16 0.01,-0.06 0.02,-0.21 0,-0.25l0 -0.28c0,-0.29 0.1,-0.39 0.18,-0.45 0.03,-0.03 0.17,-0.07 0.2,-0.1 0.04,-0.06 0.03,-0.18 0.04,-0.25 -0.01,-0.28 0.02,-0.88 -0.06,-1.08 0,-0.04 -0.01,-0.08 -0.02,-0.11 -0.01,-0.02 -0.01,-0.03 -0.02,-0.05 -0.11,-0.19 -0.3,-0.58 -0.38,-0.78zm0.87 4.87c0.1,-0.04 0.13,-0.02 0.25,-0.11 0.19,-0.14 0.4,-0.35 0.64,-0.44l0.11 -0.04c0.04,-0.02 0.34,-0.09 0.5,-0.19 0.29,-0.17 0.31,-0.38 -0.05,-0.47 -0.17,-0.05 -0.31,-0.07 -0.39,-0.32 -0.11,-0.41 0.11,-0.49 -0.15,-0.52 -0.04,-0.01 -0.07,-0.01 -0.11,-0.01 -0.06,0 -0.05,0 -0.21,0.12 -0.02,0.02 -0.04,0.03 -0.07,0.05 -0.01,0.01 -0.02,0.01 -0.03,0.02l-0.04 0.04c-0.03,0 -0.03,0.01 -0.06,0.02 -0.03,0.01 -0.05,0.02 -0.06,0.03 -0.3,0.07 -0.44,-0.05 -0.57,-0.26 -0.06,-0.1 -0.05,-0.15 -0.1,-0.2 -0.1,-0.04 -0.18,0.03 -0.22,0.12 -0.12,0.23 0,0.72 0.04,0.96 0.05,0.4 -0.15,0.69 0,0.96 0.03,0.06 0.12,0.16 0.19,0.19l0.13 0.05c0.06,0.01 0.14,0.01 0.2,0zm-3.67 0.22c-0.02,0.01 -0.02,0.02 -0.04,0.02 -0.02,0 -0.03,0.01 -0.05,0.01 -0.18,0 -0.23,-0.08 -0.38,-0.11l-0.01 0c-0.02,-0.01 -0.01,-0.01 -0.02,-0.01 0,0 -0.03,-0.02 -0.03,-0.02l-0.01 0c0,0 -0.05,-0.04 -0.06,-0.05 -0.06,-0.03 -0.26,-0.16 -0.33,-0.16 -0.01,0 -0.07,-0.03 -0.08,-0.04 0,0 -0.07,-0.02 -0.08,-0.02 -0.02,0 -0.05,-0.02 -0.08,-0.02 -0.03,0 -0.04,0 -0.06,0 -0.06,-0.01 -0.13,-0.01 -0.2,-0.02l0 0 0 0c-0.19,-0.02 -0.41,-0.06 -0.66,-0.13 -0.06,0 -0.19,-0.04 -0.23,-0.07 -0.05,-0.05 -0.03,-0.11 0,-0.16 0.01,-0.02 0.01,-0.02 0.03,-0.04 0.01,-0.02 0.02,-0.04 0.04,-0.05 0.01,-0.03 0.01,-0.02 0.03,-0.06 0.1,-0.18 0.07,-0.29 0.03,-0.47l-0.05 -0.15c-0.03,-0.03 -0.06,-0.12 -0.08,-0.16 -0.04,-0.14 0.07,-0.25 0.15,-0.21 0,0 0.01,-0.01 0.01,-0.01 0,0 0.07,0 0.08,0 0,0 0.02,0 0.02,0 0.19,0 0.14,-0.04 0.3,-0.04 0.03,0 0.01,-0.01 0.03,-0.01l0.01 -0.01c0,0 0.01,0.01 0.01,0 0.01,0 0.01,0 0.01,-0.01 0.03,0 0.02,-0.01 0.04,-0.01 0,0 0.02,-0.01 0.02,-0.01 0.01,-0.01 0.02,-0.02 0.02,-0.02l0.01 0c0.01,0 0,-0.01 0.01,-0.01 0.02,-0.01 0.12,-0.17 0.12,-0.17 0,-0.01 0.01,0 0.01,-0.01 0.01,-0.02 0.01,0 0.01,-0.02 0,0 0.02,-0.02 0.02,-0.02 0.01,-0.03 -0.01,0.02 0.01,-0.02 0.03,-0.06 0.05,-0.33 0.12,-0.37 0.19,-0.07 0.14,-0.07 0.34,0 0.06,0.04 0.15,0.11 0.18,0.15 0.12,0.12 0.25,0.31 0.35,0.42 0.12,0.19 0.5,0.73 0.68,1.05 0.07,0.12 0.15,0.22 0.14,0.39 -0.01,0.24 -0.15,0.55 -0.38,0.65zm0.35 -6.69c0.09,0.08 0.12,0.05 0.19,0.14 0.05,0.08 0.07,0.12 0.16,0.16 0.15,0.07 0.4,0.03 0.56,-0.01 0.09,-0.02 0.66,-0.2 0.72,-0.25 0.04,-0.02 0.04,-0.07 0.08,-0.09 0.07,-0.03 0.08,0.02 0.07,0.08 -0.14,0.11 -0.43,0.17 -0.66,0.28 -0.43,0.22 -0.66,0.07 -0.82,0.11 -0.01,0.05 0.02,0.07 0.05,0.09 0.13,0.1 0.12,0.12 0.3,0.16 0.19,0.04 0.71,-0.22 0.88,-0.31 0.15,-0.08 0.12,-0.05 0.21,-0.09 0.05,-0.03 0.18,-0.07 0.2,-0.12 0.02,-0.04 0.06,-0.19 0.05,-0.24 0,-0.22 -0.31,-0.2 -0.57,-0.34 -0.18,-0.09 -0.06,-0.09 -0.32,-0.13 -0.13,-0.02 -0.24,-0.06 -0.4,-0.05 -0.09,0 -0.15,-0.01 -0.22,0.04 -0.02,0.01 -0.01,0 -0.03,0.02 -0.03,0.01 -0.12,0.08 -0.14,0.11 -0.18,0.15 -0.37,0.25 -0.31,0.44zm1.06 -0.63c0.04,0 0.08,0.01 0.13,0.02 0.07,0.01 0.05,-0.01 0.05,-0.09 0,-0.38 0.35,-0.37 0.48,-0.22 0.06,0.07 0.06,0.15 0.05,0.24 -0.01,0.08 -0.08,0.18 -0.03,0.23 0.11,0.11 0.27,0.03 0.26,-0.25 -0.01,-0.13 -0.08,-0.38 -0.13,-0.47 -0.09,-0.14 -0.2,-0.17 -0.4,-0.2 -0.31,-0.03 -0.48,0.39 -0.41,0.74zm-0.8 0.12c-0.03,-0.03 -0.19,-0.04 -0.16,-0.36 0.01,-0.14 0.22,-0.2 0.31,-0.09 0.13,0.17 0.07,0.25 0.1,0.29 0.02,0.02 0.08,0.01 0.1,-0.01 0.06,-0.04 0.04,-0.46 -0.15,-0.59 -0.14,-0.1 -0.38,-0.03 -0.45,0.26 -0.05,0.19 0.02,0.61 0.13,0.64 0.06,0.01 0.11,-0.08 0.12,-0.14z"/>
 </g>
</svg>
