<?xml version="1.0" encoding="UTF-8"?>
<!DOCTYPE svg PUBLIC "-//W3C//DTD SVG 1.1//EN" "http://www.w3.org/Graphics/SVG/1.1/DTD/svg11.dtd">
<!-- Creator: CorelDRAW 2021 (64-Bit) -->
<svg xmlns="http://www.w3.org/2000/svg" xml:space="preserve" width="96px" height="85px" version="1.1" style="shape-rendering:geometricPrecision; text-rendering:geometricPrecision; image-rendering:optimizeQuality; fill-rule:evenodd; clip-rule:evenodd"
viewBox="0 0 4.47 3.95"
 xmlns:xlink="http://www.w3.org/1999/xlink"
 xmlns:xodm="http://www.corel.com/coreldraw/odm/2003">
 <defs>
  <style type="text/css">
   <![CDATA[
    .fil0 {fill:#D6EFFF;fill-opacity:0.501961}
   ]]>
  </style>
 </defs>
 <g id="Capa_x0020_1">
  <metadata id="CorelCorpID_0Corel-Layer"/>
  <path class="fil0" d="M0 3.35l0 0.07c0.4,-0.11 0.79,-0.31 1.3,-0.09 0.14,0.07 0.23,0.14 0.35,0.2l0.44 -1.5c-0.19,-0.08 -0.33,-0.24 -0.72,-0.27 -0.31,-0.03 -0.58,0.06 -0.84,0.14 -0.15,0.06 -0.11,0.02 -0.19,0.3l-0.34 1.15zm1.88 0.31c0.52,0.34 0.9,0.39 1.56,0.14 0.14,-0.05 0.11,-0.05 0.18,-0.31 0.04,-0.13 0.08,-0.25 0.12,-0.39 0.07,-0.24 0.16,-0.53 0.21,-0.78 -0.31,0.07 -0.51,0.17 -0.88,0.15 -0.42,-0.02 -0.57,-0.2 -0.76,-0.28l-0.43 1.47zm-1.38 -1.99c0.29,-0.08 0.49,-0.21 0.87,-0.2 0.37,0.01 0.54,0.16 0.78,0.29 0.04,-0.06 0.4,-1.31 0.43,-1.47 -0.45,-0.39 -1.04,-0.33 -1.57,-0.14 -0.12,0.05 -0.08,0 -0.17,0.32 -0.07,0.24 -0.33,1.08 -0.34,1.2zm3.72 -0.23c0.01,-0.04 0.01,-0.06 0.02,-0.1 0.01,-0.02 0.01,-0.02 0.02,-0.04 0.02,-0.04 0.01,-0.02 0.02,-0.04 -0.01,-0.15 0.17,-0.53 0.19,-0.71 -0.54,0.19 -0.96,0.29 -1.49,0 -0.06,-0.03 -0.1,-0.07 -0.16,-0.1 -0.03,0.05 -0.41,1.36 -0.43,1.49 0.07,0.03 0.14,0.09 0.23,0.13 0.29,0.15 0.58,0.19 0.92,0.12 0.1,-0.02 0.17,-0.04 0.27,-0.08 0.08,-0.02 0.21,-0.04 0.25,-0.12 0.05,-0.12 0.1,-0.44 0.16,-0.55z"/>
 </g>
</svg>
